<?xml version="1.0" standalone="no"?><!DOCTYPE svg PUBLIC "-//W3C//DTD SVG 1.1//EN" "http://www.w3.org/Graphics/SVG/1.1/DTD/svg11.dtd"><svg t="1570852128433" class="icon" viewBox="0 0 1024 1024" version="1.1" xmlns="http://www.w3.org/2000/svg" p-id="2488" width="64" height="64" xmlns:xlink="http://www.w3.org/1999/xlink"><defs><style type="text/css"></style></defs><path d="M833.536 595.456v211.968c0 5.12 2.048 10.24 6.144 14.336s8.704 6.656 14.848 6.656h83.968c6.144 0 10.752-2.048 14.848-6.656 4.096-4.096 6.144-9.216 6.144-14.336v-211.968c0-6.144-2.048-10.752-6.144-14.848-4.096-4.096-8.704-6.144-14.848-6.144h-83.968c-6.144 0-10.752 2.048-14.848 6.144s-6.144 9.216-6.144 14.848z m-740.864-20.48c-6.144 0-10.752 2.048-14.848 6.144-4.096 4.096-6.144 8.704-6.144 14.848V808.96c0 5.12 2.048 10.24 6.144 14.336 4.096 4.096 8.704 6.656 14.848 6.656h84.992c6.144 0 10.752-2.048 14.848-6.656 4.096-4.096 6.144-9.216 6.144-14.336v-212.992c0-6.144-2.048-10.752-6.144-14.848-4.096-4.096-8.704-6.144-14.848-6.144H92.672z m929.792-3.072c0 1.536 0 2.56-0.512 4.608l-1.536 4.608c0.512 2.048 1.024 4.096 1.536 7.168 0.512 2.56 0.512 5.12 0.512 7.68v211.968c0 16.384-4.608 31.744-13.312 45.056-8.704 13.312-20.48 23.552-35.328 30.208-1.536 2.048-3.072 3.584-5.12 5.12-2.048 1.536-4.096 2.56-6.144 3.072L635.904 1018.88l-56.32 1.024H483.84c-8.704 0-15.872-3.072-22.528-9.216-6.144-6.144-9.216-13.824-9.216-22.528v-31.744c0-9.216 3.072-16.896 9.216-22.528 6.144-6.144 13.824-8.704 22.528-8.704h95.232c8.704 0 15.872 3.072 22.528 8.704 6.144 6.144 9.216 13.312 9.216 22.528v5.12l203.776-80.384c-13.312-7.168-24.064-17.408-32.256-30.208-8.192-12.8-12.288-27.136-12.288-43.008v-211.968c0-23.04 8.192-43.008 24.064-59.392 16.384-16.384 36.352-24.576 59.904-24.576h83.968c3.072 0 6.656 0 9.216 0.512l9.216 1.536c-0.512-11.776-1.536-23.04-2.048-33.792-0.512-10.752-1.536-18.432-2.048-23.552-6.144-56.32-21.504-108.032-46.08-155.648s-56.32-88.576-95.232-123.392c-38.4-34.816-82.944-61.952-133.12-81.408-50.176-19.456-103.424-29.184-160.256-29.184-59.392 0-115.2 10.752-167.424 32.768-51.2 21.504-96.768 51.2-136.704 89.6-39.424 37.888-71.68 82.944-95.744 134.656-24.064 51.712-37.888 108.032-40.96 168.96 0 1.536 0 3.584-0.512 7.68-0.512 3.584-0.512 8.192-0.512 13.312 2.56-0.512 5.632-1.024 8.192-1.536 3.072-0.512 5.632-0.512 8.192-0.512h84.992c23.552 0 43.52 8.192 59.904 24.576 16.384 16.384 24.064 36.352 24.064 59.392V808.96c0 23.04-8.192 43.008-24.064 59.392-16.384 16.384-36.352 24.576-59.904 24.576H92.672c-23.04 0-43.008-8.192-59.392-24.576-16.384-16.384-24.576-36.352-24.576-59.392v-212.992c0-3.072 0-6.656 0.512-9.216 0.512-3.072 1.024-5.632 1.536-8.192v-15.36c0-12.288 0.512-27.136 1.536-44.032 1.024-16.896 1.536-27.136 1.536-30.208C17.92 420.352 33.792 356.352 61.44 296.96s64-110.592 109.568-154.112C215.552 99.328 268.288 65.536 327.68 40.96 387.072 16.384 450.56 3.584 518.656 3.584c64.512 0 125.952 11.264 183.296 33.792 57.344 22.528 108.032 53.248 152.576 92.672 44.032 39.424 80.384 86.528 109.056 141.312 28.16 54.784 46.08 114.176 53.248 178.176 1.536 11.264 2.56 31.744 4.096 61.952 1.024 29.696 1.536 49.664 1.536 60.416z" p-id="2489" fill="#179b16"></path></svg>